<svg height="301" viewBox="0 0 1440 301" width="1440" xmlns="http://www.w3.org/2000/svg"><g fill="none" fill-rule="evenodd"><g fill-rule="nonzero" stroke="#8888a3" stroke-linecap="round" stroke-linejoin="round" stroke-width="2" transform="translate(0 219)"><path d="m0 14h1440v67h-1440z" fill="#f5f5ff"/><path d="m206.317165 10.1786026 17.682835-27.1786026-8.317165 72.8213974-17.682835 27.1786026z" fill="#fff" transform="matrix(.40673664 .91354546 -.91354546 .40673664 155.325568 -173.180401)"/></g><g fill="#5c5c70" stroke="#8888a3" stroke-linecap="round" stroke-linejoin="round" stroke-width="2" transform="translate(42 43)"><path d="m114.924442 196h-114.924442v-182.1919269c0-7.61309976 6.27135348-13.8080731 13.978318-13.8080731h87.043364c7.706965 0 13.978318 6.19497334 13.978318 13.8080731z"/><path d="m98.6397608 48.751269h-82.2795216c-5.1330344 0-9.3602392-4.1280612-9.3602392-9.3069017v-24.1679224c0-5.1037848 4.151719-9.30690175 9.3602392-9.30690175h82.2795216c5.1330342 0 9.3602392 4.12806125 9.3602392 9.30690175v24.1679224c-.075486 5.1788405-4.227205 9.3069017-9.3602392 9.3069017z"/></g><g transform="translate(47 30)"><g fill-rule="nonzero"><path d="m90 182.299312s51.655488 26.556214 87.468959 20.913959c2.252419-.37615 4.204516-2.031212 4.805161-4.212884l4.50484-15.873544c.675725-2.482592-.225242-5.040415-2.327501-6.469786-7.658226-5.266105-26.803792-17.077226-46.550003-18.657057z" fill="#2a2a3a"/><path d="m97.9631491 192s-51.6670854-113.904554 0-121c0 0 60.4679399 2.1135371 41.2729729 108.16781z" fill="#2a2a3a"/><path d="m130 204h-116v-95.341344c0-21.4046964 16.4857881-42.658656 60.9224806-42.658656 44.4366924 0 51.5555554 23.6657564 53.6537464 55.998908z" fill="#32323d"/><path d="m104.00339 73h-57.0067798c-2.7254238 0-4.9966102-2.3181818-4.9966102-5.1v-6.8c0-2.7818182 2.2711864-5.1 4.9966102-5.1h54.6598868c4.01243 0 7.343503 3.3227273 7.343503 7.4954545v4.4818182c0 2.7818182-2.19548 5.0227273-4.99661 5.0227273z" fill="#32323d"/></g><g transform="translate(195 184)"><ellipse cx="24.667833" cy="11.939667" fill="#fff" rx="19.5" ry="9" stroke="#8888a3" stroke-linecap="round" stroke-linejoin="round" stroke-width="2" transform="matrix(.98768834 .15643447 -.15643447 .98768834 2.171477 -3.711902)"/><path d="m0 4.13672094s22.2746634-5.15812217 27.015084-3.95471557c4.6627088 1.12317949 7.5129838 1.62023642 11.3208627 4.34795803.9509241 1.02632366 1.0840302 1.77631624.3993182 2.24997772-.4834463.33443241-2.9144392-1.42651338-5.6010775-2.64322018-3.033459-1.37377266-3.8784674-1.96239795-4.4365518-1.35804195s2.3227061 1.74692961 6.5100297 4.49601709c1.2802438.8405136 2.5073124 1.73871152 3.5894499 2.58068793 1.3680756 1.06445549 1.6887204 1.20745009 2.4081105 1.86202989 2.5312931 2.3032473-.6357596 2.0717432-.7202225 2.0422935-2.6904462-.9380806-4.1149019-2.5024225-6.9905335-4.51863869-4.8967387-3.43329237-8.8861345-5.10434777-9.8849309-4.59834015-.402802.20406653 3.3287419 1.41240518 7.6742164 4.30361199 3.3727329 2.24400555 4.7861517 3.62603175 6.8507453 5.22180535.7936587.6134378-.9470114 2.0731791-1.5119881 1.9481442-2.5871747-.5725674-3.9596426-2.499113-7.9248768-4.9295573-5.4392025-3.33389603-8.2159405-5.174687-9.9553974-3.57518893-.322354.29641699 3.6497157 1.63828013 7.0469111 3.57518893 3.4798275 1.9840214 6.0204855 3.6515708 8.6027268 5.4845028 1.6271524 1.1549888-.4461701 1.8933218-1.2576887 1.7400258-2.6785496-.5059785-11.2122792-4.7213457-15.9421055-5.8622448-3.3777029-.8147483-4.8114013.3496931-5.2556739 1.1917347-.4277773.8107776-.2262511 2.6257286 3.2917979 3.2477642 3.5333766.6247457 4.7895638-.0336647 6.3184781.7266722 3.1951257 1.5889524 2.2383149 1.9623316 1.2301022 2.443232-5.3406335 2.547392-22.7767862-1.5005925-22.7767862-1.5005925z" fill="#faaf6a" fill-rule="nonzero"/></g><path d="m56.9505539 172.314328s-.3769711-56.751045-5.2022014-72.8254762c-5.6545668-18.8667036-12.8924123-26.4888518-12.8924123-26.4888518-35.88765044 4.9808097-41.39142876 55.392642-37.9986887 92.975115 2.11103826 23.621113 13.7971429 41.506748 37.0185638 45.95929 25.4078534 4.905343 81.1241847 3.999741 81.1241847 3.999741l-1.206308-18.338436z" fill="#32323d" fill-rule="nonzero"/><path d="m182 185h19v14h-19z" fill="#32323d" fill-rule="nonzero" transform="matrix(.27291113 -.96203925 .96203925 .27291113 -45.474018 323.831578)"/><path d="m193 183-5 18" stroke="#fff"/><path d="m197 183-5 18" stroke="#fff"/><g transform="translate(126 197)"><path d="m22 1c6.7290336.71676668 10.5881519 1.41184522 11.5773549 2.08523562 1.4838045 1.0100856 7.154187 6.7180346 8.3026713 6.61409021 1.1484844-.10394439 3.0925119 1.10609527 1.546256 2.35686637-1.546256 1.2507711-4.5001308 1.1462977-5.3200326.3390756-.8199017-.8072221-4.4148755-5.6492323-6.5501443-6.08405312-1.4235126-.28988055-2.9870441-.75961399-4.6905948-1.40920033z" fill="#faa250"/><path d="m1.46742474 5.70562238s14.14177796-6.76996839 18.98811756-5.56104546c2.4922708.58992304 10.8846466 2.97467737 15.5525635 5.56104546 4.2602675 2.36050041 8.7944247 9.81081272 8.7944247 9.81081272s1.126806 4.2635747-2.0029452 2.4835149c-2.8202378-1.6040226-3.3183894-3.5864351-6.2741298-6.1894218-4.2956881-3.78301786-7.6676422-6.68473313-8.6254359-6.10490582-.747515.45252917 2.5615539 2.15209171 6.7794238 5.44281512 3.6654527 2.8597352 5.6999547 6.1651435 7.4431485 8.1902288 1.3400886 1.556794-1.5218614 1.9856922-2.3562345 1.679156-3.2779589-1.2042734-4.08266-3.5272355-7.9409179-6.8225823-3.2313644-2.7599156-7.4830234-4.68034737-9.3254395-5.12663648-.2657007-.06436077-.9033134-.23949793-.7431655.41918945.160148.65868733 1.266648.80473043 5.7636733 3.73413083 2.8761836 1.8735704 7.8309163 6.4905017 9.7160645 8.3317871 1.479198 1.4447807-2.0153726 1.6601706-2.5571289 1.6140368-2.7842484-.2370952-6.3123756-4.8197483-10.0444336-6.9001696-3.146406-1.7539518-5.9595153-3.0730297-7.1245219-2.6978581-.5731962.1845886 2.3356084 3.537487 5.5214945 5.1665108 3.5030489 1.791197 6.1324955 4.0954873 6.5058784 4.4315169.7489158.6739941-1.5876363.9132355-3.0600985.8087364-3.8895473-.2760371-9.290767-4.4313114-13.5712776-5.2402533-5.91776266-1.1183541-12.9064847-1.2699493-12.9064847-1.2699493z" fill="#faaf6a" fill-rule="nonzero"/></g><path d="m113 199h19v14h-19z" fill="#444451" fill-rule="nonzero" transform="matrix(.12339473 -.99235767 .99235767 .12339473 -97.041534 302.1445)"/><g stroke="#fff" transform="translate(120 196)"><path d="m2.78181818 0-2.78181818 18.525"/><path d="m6.70454545 1-2.70454545 18.525"/></g><g fill-rule="nonzero"><circle cx="105" cy="31" fill="#f8994d" r="7"/><path d="m91 53.6721992v17.3278008h-35l4.2628205-36s12.9380342 9.4854772 24.4551282 9.4854772c2.2435898 0 4.2628205 9.7095435 6.2820513 9.186722z" fill="#faaf6a"/><path d="m90.25 53.1697927c12.64881-4.3144447 18.75-12.5713993 18.75-24.175768 0-13.761591-11.1607143-24.9940247-25-24.9940247-13.764881 0-25 11.1580468-25 24.9940247 0 2.3059964.297619 4.5376057.8928571 6.6204411.0744048 0 14.3601191 22.9855763 30.3571429 17.5553269z" fill="#faaf6a"/><g fill="#2a2a3a"><path d="m115 14.66169s-10.948435 7.1779607-22.2744015 4.8871222c-11.3259668-2.2908385-18.7255985-13.2105022-18.7255985-13.2105022s10.9484346-7.17796074 22.2744015-4.88712221c11.3259665 2.29083854 18.7255985 13.21050221 18.7255985 13.21050221z"/><path d="m83 .30972322s-1.3447326 9.42483527-8.4419324 15.88540788c-7.0971999 6.4605725-15.3150102 9.8048689-15.3150102 9.8048689s-1.9423916-14.8213135 5.1548083-21.28188609c7.1719072-6.46057256 18.6021343-4.40839069 18.6021343-4.40839069z"/><circle cx="82" cy="26" r="1"/><circle cx="102" cy="26" r="1"/></g><path d="m89 36.7724162s6.5491781.9817078 6.9299442-1.1327399c.3807662-2.1144476-.8376855-11.9315259-2.5130567-12.6111698-1.6753711-.7551599-4.4168875 13.7439097-4.4168875 13.7439097z" fill="#f8994d"/></g><path d="m90 40.9652177s-4.5959596.5765701-7-2.9652177" stroke="#2a2a3a" stroke-linecap="round" stroke-linejoin="round"/><path d="m86.325 21h-4.65c-.375 0-.675-.3333333-.675-.75v-.5c0-.4166667.3-.75.675-.75h4.65c.375 0 .675.3333333.675.75v.5c0 .4166667-.3.75-.675.75z" fill="#2a2a3a" fill-rule="nonzero"/><path d="m105.338235 22h-3.67647c-.367647 0-.661765-.3333333-.661765-.75v-.5c0-.4166667.294118-.75.661765-.75h3.67647c.367647 0 .661765.3333333.661765.75v.5c0 .4166667-.294118.75-.661765.75z" fill="#2a2a3a" fill-rule="nonzero"/><circle cx="60" cy="29" fill="#faaf6a" fill-rule="nonzero" r="7"/><path d="m74 51c-3.5689655-1.6597938-6.6724138-4.0412371-9-7" stroke="#f8994d"/><path d="m80.9556914 79-35.9784081-8.3717312c-2.7791255-.666775-4.50669-3.4079614-3.8306865-6.1491477l.8262265-3.5561336c.6760035-2.7411863 3.455129-4.445167 6.2342544-3.7783919l25.8383558 6.0009754c5.5582509 1.259464 9.0133799 6.7418366 7.6613729 12.2242093z" fill="#32323d" fill-rule="nonzero"/><path d="m81 81-34.0133588-8.0689655c-2.5305343-.5977012-4.3912214-2.5402299-4.9866412-4.9310345" stroke="#fff" stroke-linecap="round" stroke-linejoin="round"/><path d="m80.2431763 78 22.9831617-5.8896761c2.712766-.6625886 4.295213-3.3865638 3.617022-6.0369181l-.904256-3.3865637c-.678191-2.6503543-3.466313-4.1963943-6.1790792-3.5338057l-13.2624145 3.3865638c-5.3501785 1.398798-8.5904275 6.7731275-7.1586896 12.0002151z" fill="#32323d" fill-rule="nonzero"/><path d="m55 128v40.128295s19.9824263 6.911388 39.9648526 19.278522" stroke="#fff"/><circle cx="74" cy="75" r="1" stroke="#fff" stroke-linecap="round" stroke-linejoin="round"/><circle cx="86" cy="75" r="1" stroke="#fff" stroke-linecap="round" stroke-linejoin="round"/></g><g stroke="#8888a3" stroke-linecap="round" stroke-linejoin="round" stroke-width="2" transform="translate(0 1)"><g fill-rule="nonzero"><path d="m255 60h163v118h-163z" fill="#fff"/><path d="m241 60h14v118h-14z" fill="#f5f5ff"/><g transform="translate(297 106)"><path d="m10 125h60.9957627c1.1045695 0 2 .895431 2 2v4.51046c0 1.10457-.8954305 2-2 2h-60.9957627z" fill="#fff"/><g fill="#f5f5ff"><path d="m2 125h8v8.51046h-8c-1.1045695 0-2-.89543-2-2v-4.51046c0-1.104569.8954305-2 2-2z"/><path d="m33 124.648536v-92.1841009-21.4644351h14.179661v21.4644351 92.1841009"/><ellipse cx="40.19661" cy="17.171548" rx="17.19661" ry="17.171548"/></g></g></g><g fill="#fff"><g transform="translate(443 107)"><path d="m0 0h35v21h-35z"/><path d="m1 0h34l-17 14z"/></g><g transform="matrix(.83867057 -.54463904 .54463904 .83867057 443.388275 23.807022)"><path d="m0 0h43v26h-43z"/><path d="m1 0h42l-21 18z"/></g><g transform="matrix(.95630476 .2923717 -.2923717 .95630476 501.288076 158.61666)"><path d="m0 0h48v29h-48z"/><path d="m1 0h47l-23.5 20z"/></g></g></g></g></svg>