<?xml version="1.0" encoding="UTF-8"?>
<svg width="1440px" height="301px" viewBox="0 0 1440 301" version="1.1" xmlns="http://www.w3.org/2000/svg" xmlns:xlink="http://www.w3.org/1999/xlink">
    <!-- Generator: Sketch 49 (51002) - http://www.bohemiancoding.com/sketch -->
    <title>Group 5</title>
    <desc>Created with Sketch.</desc>
    <defs></defs>
    <g id="illustration" stroke="none" stroke-width="1" fill="none" fill-rule="evenodd">
        <g id="Desktop-HD-Copy-2" transform="translate(0.000000, -723.000000)">
            <g id="Group-5" transform="translate(0.000000, 724.000000)">
                <g id="desk" transform="translate(0.000000, 218.000000)" fill-rule="nonzero" stroke="#8888A3" stroke-linecap="round" stroke-linejoin="round" stroke-width="2">
                    <rect id="Rectangle-path" fill="#F5F5FF" x="0" y="14" width="1440" height="67"></rect>
                    <polygon id="Rectangle-path-Copy-6" fill="#FFFFFF" transform="translate(211.000000, 33.000000) rotate(66.000000) translate(-211.000000, -33.000000) " points="206.317165 10.1786026 224 -17 215.682835 55.8213974 198 83"></polygon>
                </g>
                <g id="data-spirit-id" transform="translate(42.000000, 42.000000)" fill="#5C5C70" stroke="#8888A3" stroke-linecap="round" stroke-linejoin="round" stroke-width="2">
                    <g id="Group-10">
                        <path d="M114.924442,196 L0,196 L0,13.8080731 C0,6.19497334 6.27135348,0 13.978318,0 L101.021682,0 C108.728647,0 115,6.19497334 115,13.8080731 L114.924442,196 Z" id="Shape"></path>
                        <path d="M98.6397608,48.751269 L16.3602392,48.751269 C11.2272048,48.751269 7,44.6232078 7,39.4443673 L7,15.2764449 C7,10.1726601 11.151719,5.96954315 16.3602392,5.96954315 L98.6397608,5.96954315 C103.772795,5.96954315 108,10.0976044 108,15.2764449 L108,39.4443673 C107.924514,44.6232078 103.772795,48.751269 98.6397608,48.751269 Z" id="Shape"></path>
                    </g>
                </g>
                <g id="data-spirit-id" transform="translate(47.000000, 29.000000)">
                    <path d="M90,182.299312 C90,182.299312 141.655488,208.855526 177.468959,203.213271 C179.721378,202.837121 181.673475,201.182059 182.27412,199.000387 L186.77896,183.126843 C187.454685,180.644251 186.553718,178.086428 184.451459,176.657057 C176.793233,171.390952 157.647667,159.579831 137.901456,158 L90,182.299312 Z" id="Shape" fill="#2A2A3A" fill-rule="nonzero"></path>
                    <path d="M97.9631491,192 C97.9631491,192 46.2960637,78.095446 97.9631491,71 C97.9631491,71 158.431089,73.1135371 139.236122,179.16781 L97.9631491,192 Z" id="Shape" fill="#2A2A3A" fill-rule="nonzero"></path>
                    <path d="M130,204 L14,204 L14,108.658656 C14,87.2539596 30.4857881,66 74.9224806,66 C119.359173,66 126.478036,89.6657564 128.576227,121.998908 L130,204 Z" id="Shape" fill="#32323D" fill-rule="nonzero"></path>
                    <path d="M104.00339,73 L46.9966102,73 C44.2711864,73 42,70.6818182 42,67.9 L42,61.1 C42,58.3181818 44.2711864,56 46.9966102,56 L101.656497,56 C105.668927,56 109,59.3227273 109,63.4954545 L109,67.9772727 C109,70.7590909 106.80452,73 104.00339,73 Z" id="Shape" fill="#32323D" fill-rule="nonzero"></path>
                    <g id="Group-6" transform="translate(195.000000, 184.000000)">
                        <g id="Group-7">
                            <ellipse id="Oval-2" stroke="#8888A3" stroke-width="2" fill="#FFFFFF" stroke-linecap="round" stroke-linejoin="round" transform="translate(24.667833, 11.939667) rotate(9.000000) translate(-24.667833, -11.939667) " cx="24.6678328" cy="11.9396671" rx="19.5" ry="9"></ellipse>
                            <path d="M0,4.13672094 C0,4.13672094 22.2746634,-1.02140123 27.015084,0.182005368 C31.6777928,1.30518486 34.5280678,1.80224179 38.3359467,4.5299634 C39.2868708,5.55628706 39.4199769,6.30627964 38.7352649,6.77994112 C38.2518186,7.11437353 35.8208257,5.35342774 33.1341874,4.13672094 C30.1007284,2.76294828 29.25572,2.17432299 28.6976356,2.77867899 C28.1395512,3.38303499 31.0203417,4.5256086 35.2076653,7.27469608 C36.4879091,8.11520968 37.7149777,9.0134076 38.7971152,9.85538401 C40.1651908,10.9198395 40.4858356,11.0628341 41.2052257,11.7174139 C43.7365188,14.0206612 40.5694661,13.7891571 40.4850032,13.7597074 C37.794557,12.8216268 36.3701013,11.2572849 33.4944697,9.24106871 C28.597731,5.80777634 24.6083352,4.13672094 23.6095388,4.64272856 C23.2067368,4.84679509 26.9382807,6.05513374 31.2837552,8.94634055 C34.6564881,11.1903461 36.0699069,12.5723723 38.1345005,14.1681459 C38.9281592,14.7815837 37.1874891,16.241325 36.6225124,16.1162901 C34.0353377,15.5437227 32.6628698,13.6171771 28.6976356,11.1867328 C23.2584331,7.85283677 20.4816951,6.0120458 18.7422382,7.61154387 C18.4198842,7.90796086 22.3919539,9.249824 25.7891493,11.1867328 C29.2689768,13.1707542 31.8096348,14.8383036 34.3918761,16.6712356 C36.0190285,17.8262244 33.945706,18.5645574 33.1341874,18.4112614 C30.4556378,17.9052829 21.9219082,13.6899157 17.1920819,12.5490166 C13.814379,11.7342683 12.3806806,12.8987097 11.936408,13.7407513 C11.5086307,14.5515289 11.7101569,16.3664799 15.2282059,16.9885155 C18.7615825,17.6132612 20.0177697,16.9548508 21.546684,17.7151877 C24.7418097,19.3041401 23.7849989,19.6775193 22.7767862,20.1584197 C17.4361527,22.7058117 0,18.6578272 0,18.6578272 L0,4.13672094 Z" id="Shape-Copy" fill="#FAAF6A" fill-rule="nonzero"></path>
                        </g>
                    </g>
                    <path d="M56.9505539,172.314328 C56.9505539,172.314328 56.5735828,115.563283 51.7483525,99.4888518 C46.0937857,80.6221482 38.8559402,73 38.8559402,73 C2.96828976,77.9808097 -2.53548856,128.392642 0.857251502,165.975115 C2.96828976,189.596228 14.6543944,207.481863 37.8758153,211.934405 C63.2836687,216.839748 119,215.934146 119,215.934146 L117.793692,197.59571 L56.9505539,172.314328 Z" id="Shape" fill="#32323D" fill-rule="nonzero"></path>
                    <rect id="Rectangle-path" fill="#32323D" fill-rule="nonzero" transform="translate(191.500000, 192.000000) rotate(-74.162430) translate(-191.500000, -192.000000) " x="182" y="185" width="19" height="14"></rect>
                    <path d="M193,183 L188,201" id="Shape" stroke="#FFFFFF"></path>
                    <path d="M197,183 L192,201" id="Shape" stroke="#FFFFFF"></path>
                    <g id="Group-8" transform="translate(126.000000, 197.000000)">
                        <path d="M22,1 C28.7290336,1.71676668 32.5881519,2.41184522 33.5773549,3.08523562 C35.0611594,4.09532122 40.7315419,9.80327022 41.8800262,9.69932583 C43.0285106,9.59538144 44.9725381,10.8054211 43.4262822,12.0561922 C41.8800262,13.3069633 38.9261514,13.2024899 38.1062496,12.3952678 C37.2863479,11.5880457 33.6913741,6.7460355 31.5561053,6.31121468 C30.1325927,6.02133413 28.5690612,5.55160069 26.8655105,4.90201435 L22,1 Z" id="Path-66" fill="#FAA250"></path>
                        <path d="M1.46742474,5.70562238 C1.46742474,5.70562238 15.6092027,-1.06434601 20.4555423,0.144576915 C22.9478131,0.734499956 31.3401889,3.11925429 36.0081058,5.70562238 C40.2683733,8.06612279 44.8025305,15.5164351 44.8025305,15.5164351 C44.8025305,15.5164351 45.9293365,19.7800098 42.7995853,17.99995 C39.9793475,16.3959274 39.4811959,14.4135149 36.5254555,11.8105282 C32.2297674,8.02751034 28.8578133,5.12579507 27.9000196,5.70562238 C27.1525046,6.15815155 30.4615735,7.85771409 34.6794434,11.1484375 C38.3448961,14.0081727 40.3793981,17.313581 42.1225919,19.3386663 C43.4626805,20.8954603 40.6007305,21.3243585 39.7663574,21.0178223 C36.4883985,19.8135489 35.6836974,17.4905868 31.8254395,14.19524 C28.5940751,11.4353244 24.3424161,9.51489263 22.5,9.06860352 C22.2342993,9.00424275 21.5966866,8.82910559 21.7568345,9.48779297 C21.9169825,10.1464803 23.0234825,10.2925234 27.5205078,13.2219238 C30.3966914,15.0954942 35.3514241,19.7124255 37.2365723,21.5537109 C38.7157703,22.9984916 35.2211997,23.2138815 34.6794434,23.1677477 C31.895195,22.9306525 28.3670678,18.3479994 24.6350098,16.2675781 C21.4886038,14.5136263 18.6754945,13.1945484 17.5104879,13.56972 C16.9372917,13.7543086 19.8460963,17.107207 23.0319824,18.7362308 C26.5350313,20.5274278 29.1644779,22.8317181 29.5378608,23.1677477 C30.2867766,23.8417418 27.9502245,24.0809832 26.4777623,23.9764841 C22.588215,23.700447 17.1869953,19.5451727 12.9064847,18.7362308 C6.98872204,17.6178767 0,17.4662815 0,17.4662815 L1.46742474,5.70562238 Z" id="Shape" fill="#FAAF6A" fill-rule="nonzero"></path>
                    </g>
                    <rect id="Rectangle-path" fill="#444451" fill-rule="nonzero" transform="translate(122.500000, 206.000000) rotate(-82.911937) translate(-122.500000, -206.000000) " x="113" y="199" width="19" height="14"></rect>
                    <g id="Group" transform="translate(120.000000, 196.000000)" stroke="#FFFFFF">
                        <path d="M2.78181818,0 L0,18.525" id="Shape"></path>
                        <path d="M6.70454545,1 L4,19.525" id="Shape"></path>
                    </g>
                    <circle id="Oval" fill="#F8994D" fill-rule="nonzero" cx="105" cy="31" r="7"></circle>
                    <path d="M91,53.6721992 L91,71 L56,71 L60.2628205,35 C60.2628205,35 73.2008547,44.4854772 84.7179487,44.4854772 C86.9615385,44.4854772 88.9807692,54.1950207 91,53.6721992 Z" id="Shape" fill="#FAAF6A" fill-rule="nonzero"></path>
                    <path d="M90.25,53.1697927 C102.89881,48.855348 109,40.5983934 109,28.9940247 C109,15.2324337 97.8392857,4 84,4 C70.235119,4 59,15.1580468 59,28.9940247 C59,31.3000211 59.297619,33.5316304 59.8928571,35.6144658 C59.9672619,35.6144658 74.2529762,58.6000421 90.25,53.1697927 Z" id="Shape" fill="#FAAF6A" fill-rule="nonzero"></path>
                    <path d="M115,14.66169 C115,14.66169 104.051565,21.8396507 92.7255985,19.5488122 C81.3996317,17.2579737 74,6.33831 74,6.33831 C74,6.33831 84.9484346,-0.83965074 96.2744015,1.45118779 C107.600368,3.74202633 115,14.66169 115,14.66169 Z" id="Shape" fill="#2A2A3A" fill-rule="nonzero"></path>
                    <path d="M83,0.30972322 C83,0.30972322 81.6552674,9.73455849 74.5580676,16.1951311 C67.4608677,22.6557036 59.2430574,26 59.2430574,26 C59.2430574,26 57.3006658,11.1786865 64.3978657,4.71811391 C71.5697729,-1.74245865 83,0.30972322 83,0.30972322 Z" id="Shape" fill="#2A2A3A" fill-rule="nonzero"></path>
                    <circle id="Oval" fill="#2A2A3A" fill-rule="nonzero" cx="82" cy="26" r="1"></circle>
                    <circle id="Oval" fill="#2A2A3A" fill-rule="nonzero" cx="102" cy="26" r="1"></circle>
                    <path d="M89,36.7724162 C89,36.7724162 95.5491781,37.754124 95.9299442,35.6396763 C96.3107104,33.5252287 95.0922587,23.7081504 93.4168875,23.0285065 C91.7415164,22.2733466 89,36.7724162 89,36.7724162 Z" id="Shape" fill="#F8994D" fill-rule="nonzero"></path>
                    <path d="M90,40.9652177 C90,40.9652177 85.4040404,41.5417878 83,38" id="Shape" stroke="#2A2A3A" stroke-linecap="round" stroke-linejoin="round"></path>
                    <path d="M86.325,21 L81.675,21 C81.3,21 81,20.6666667 81,20.25 L81,19.75 C81,19.3333333 81.3,19 81.675,19 L86.325,19 C86.7,19 87,19.3333333 87,19.75 L87,20.25 C87,20.6666667 86.7,21 86.325,21 Z" id="Shape" fill="#2A2A3A" fill-rule="nonzero"></path>
                    <path d="M105.338235,22 L101.661765,22 C101.294118,22 101,21.6666667 101,21.25 L101,20.75 C101,20.3333333 101.294118,20 101.661765,20 L105.338235,20 C105.705882,20 106,20.3333333 106,20.75 L106,21.25 C106,21.6666667 105.705882,22 105.338235,22 Z" id="Shape" fill="#2A2A3A" fill-rule="nonzero"></path>
                    <circle id="Oval" fill="#FAAF6A" fill-rule="nonzero" cx="60" cy="29" r="7"></circle>
                    <path d="M74,51 C70.4310345,49.3402062 67.3275862,46.9587629 65,44" id="Shape" stroke="#F8994D"></path>
                    <path d="M80.9556914,79 L44.9772833,70.6282688 C42.1981578,69.9614938 40.4705933,67.2203074 41.1465968,64.4791211 L41.9728233,60.9229875 C42.6488268,58.1818012 45.4279523,56.4778205 48.2070777,57.1445956 L74.0454335,63.145571 C79.6036844,64.405035 83.0588134,69.8874076 81.7068064,75.3697803 L80.9556914,79 Z" id="Shape" fill="#32323D" fill-rule="nonzero"></path>
                    <path d="M81,81 L46.9866412,72.9310345 C44.4561069,72.3333333 42.5954198,70.3908046 42,68" id="Shape" stroke="#FFFFFF" stroke-linecap="round" stroke-linejoin="round"></path>
                    <path d="M80.2431763,78 L103.226338,72.1103239 C105.939104,71.4477353 107.521551,68.7237601 106.84336,66.0734058 L105.939104,62.6868421 C105.260913,60.0364878 102.472791,58.4904478 99.7600248,59.1530364 L86.4976103,62.5396002 C81.1474318,63.9383982 77.9071828,69.3127277 79.3389207,74.5398153 L80.2431763,78 Z" id="Shape" fill="#32323D" fill-rule="nonzero"></path>
                    <path d="M55,128 L55,168.128295 C55,168.128295 74.9824263,175.039683 94.9648526,187.406817" id="Shape" stroke="#FFFFFF"></path>
                    <circle id="Oval" stroke="#FFFFFF" stroke-linecap="round" stroke-linejoin="round" cx="74" cy="75" r="1"></circle>
                    <circle id="Oval" stroke="#FFFFFF" stroke-linecap="round" stroke-linejoin="round" cx="86" cy="75" r="1"></circle>
                </g>
                <g id="monitor" transform="translate(241.000000, 60.000000)" fill-rule="nonzero" stroke="#8888A3" stroke-linecap="round" stroke-linejoin="round" stroke-width="2">
                    <rect id="Rectangle-path" fill="#FFFFFF" x="14" y="0" width="163" height="118"></rect>
                    <rect id="Rectangle-path" fill="#F5F5FF" x="0" y="0" width="14" height="118"></rect>
                    <g id="Group" transform="translate(56.000000, 46.000000)">
                        <path d="M10,125 L70.9957627,125 C72.1003322,125 72.9957627,125.895431 72.9957627,127 L72.9957627,131.51046 C72.9957627,132.61503 72.1003322,133.51046 70.9957627,133.51046 L10,133.51046 L10,125 Z" id="Rectangle-path" fill="#FFFFFF"></path>
                        <path d="M2,125 L10,125 L10,133.51046 L2,133.51046 C0.8954305,133.51046 4.54882622e-13,132.61503 4.54747351e-13,131.51046 L4.54303262e-13,127 C4.54658518e-13,125.895431 0.8954305,125 2,125 Z" id="Rectangle-path-Copy" fill="#F5F5FF"></path>
                        <polyline id="Shape" fill="#F5F5FF" points="33 124.648536 33 32.4644351 33 11 47.179661 11 47.179661 32.4644351 47.179661 124.648536"></polyline>
                        <ellipse id="Oval" fill="#F5F5FF" cx="40.1966102" cy="17.1715481" rx="17.1966102" ry="17.1715481"></ellipse>
                    </g>
                </g>
                <g id="envelope" transform="translate(443.000000, 107.000000)" fill="#FFFFFF" stroke="#8888A3" stroke-linecap="round" stroke-linejoin="round" stroke-width="2">
                    <rect id="Rectangle" x="0" y="0" width="35" height="21"></rect>
                    <polygon id="Path-38" points="1 0 35 0 18 14"></polygon>
                </g>
                <g id="envelope-2" transform="translate(468.500000, 23.000000) rotate(-33.000000) translate(-468.500000, -23.000000) translate(447.000000, 10.000000)" fill="#FFFFFF" stroke="#8888A3" stroke-linecap="round" stroke-linejoin="round" stroke-width="2">
                    <rect id="Rectangle" x="0" y="0" width="43" height="26"></rect>
                    <polygon id="Path-38" points="1 0 43 0 22 18"></polygon>
                </g>
                <g id="envelope-3" transform="translate(520.000000, 179.500000) rotate(17.000000) translate(-520.000000, -179.500000) translate(496.000000, 165.000000)" fill="#FFFFFF" stroke="#8888A3" stroke-linecap="round" stroke-linejoin="round" stroke-width="2">
                    <rect id="Rectangle" x="0" y="0" width="48" height="29"></rect>
                    <polygon id="Path-38" points="1 0 48 0 24.5 20"></polygon>
                </g>
            </g>
        </g>
    </g>
</svg>