<svg height="32" viewBox="0 0 32 32" width="32" xmlns="http://www.w3.org/2000/svg"><g fill="none" fill-rule="evenodd"><circle cx="16" cy="16" fill="#f3aa3a" r="16"/><path d="m8 0c-3.63636364 0-6.74181818 2.26181818-8 5.45454545 1.25818182 3.19272728 4.36363636 5.45454545 8 5.45454545 3.6363636 0 6.7418182-2.26181817 8-5.45454545-1.2581818-3.19272727-4.3636364-5.45454545-8-5.45454545zm0 9.09090909c-2.00727273 0-3.63636364-1.62909091-3.63636364-3.63636364 0-2.00727272 1.62909091-3.63636363 3.63636364-3.63636363 2.0072727 0 3.6363636 1.62909091 3.6363636 3.63636363 0 2.00727273-1.6290909 3.63636364-3.6363636 3.63636364zm0-5.81818182c-1.20727273 0-2.18181818.97454546-2.18181818 2.18181818 0 1.20727273.97454545 2.18181819 2.18181818 2.18181819s2.1818182-.97454546 2.1818182-2.18181819c0-1.20727272-.97454547-2.18181818-2.1818182-2.18181818z" fill="#fff" fill-rule="nonzero" transform="translate(8 11)"/></g></svg>