<svg enable-background="new 0 0 1920 1080" viewBox="0 0 1920 1080" xmlns="http://www.w3.org/2000/svg" xmlns:xlink="http://www.w3.org/1999/xlink"><mask id="a" height="776.1" maskUnits="userSpaceOnUse" width="964.5" x="1054.7" y="177.4"><circle cx="1320.1" cy="624.9" fill="none" r="3.3" stroke="#9393a9" stroke-miterlimit="10"/><path d="m873.6 645.1s251.6-13.3 323.4-31.8c98.1-25.3 220.9-171.1 282-172.2 55.7-1 208.2-67.8 266-150.2 105.2-150.1 175-418.6 175-418.6v1234s-137.5-175.3-329.1-177.2c-273.7-2.7-180.5-212.5-337.9-189.3-172.5 25.6-379.4-94.7-379.4-94.7z" fill="#fff"/></mask><path d="m525.7 795.3h-152.1v-244.1c0-10.2 8.3-18.5 18.5-18.5h115.2c10.2 0 18.5 8.3 18.5 18.5v244.1z" style="fill:none;stroke:#8888a3;stroke-width:2;stroke-linecap:round;stroke-linejoin:round;stroke-miterlimit:10"/><path d="m0 784.3h1920v297.5h-1920z" style="fill:#fff;stroke:#8888a3;stroke-width:2;stroke-linecap:round;stroke-linejoin:round;stroke-miterlimit:10"/><path d="m640.9 767.8s18.9-5.6 24.6-3.3c5.8 2.3 39 24.2 39 24.2s-20.5 2.6-31.7 4.6c-11.1 2-34.6-7.7-34.6-7.7z" fill="#faaf6a"/><path d="m873.6 645.1s251.6-13.3 323.4-31.8c98.1-25.3 220.9-171.1 282-172.2 55.7-1 208.2-67.8 266-150.2 105.2-150.1 175-418.6 175-418.6v1234s-137.5-175.3-329.1-177.2c-273.7-2.7-180.5-212.5-337.9-189.3-172.5 25.6-379.4-94.7-379.4-94.7z" fill="#32323d"/><path d="m504.2 598h-109c-6.8 0-12.4-5.5-12.4-12.4v-32.2c0-6.8 5.5-12.4 12.4-12.4h109c6.8 0 12.4 5.5 12.4 12.4v32.2c-.1 6.9-5.6 12.4-12.4 12.4z" style="fill:none;stroke:#8888a3;stroke-width:2;stroke-linecap:round;stroke-linejoin:round;stroke-miterlimit:10"/><path d="m500 759.6s68.8 35.3 116.5 27.8c3-.5 5.6-2.7 6.4-5.6l6-21.1c.9-3.3-.3-6.7-3.1-8.6-10.2-7-35.7-22.7-62-24.8z" fill="#2a2a3a"/><path d="m546.5 784.6s17.8-8.4 23.9-6.9c6 1.4 23.1 11.2 28 14.6l11 8.1s-17.5 3-27.5 4.8-35.4-2.5-35.4-2.5z" fill="#faaf6a"/><path d="m511.1 771s-68.1-150.9 0-160.3c0 0 79.7 2.8 54.4 143.3z" fill="#2a2a3a"/><path d="m516.9 612.4h-75.3c-3.6 0-6.6-3-6.6-6.6v-8.8c0-3.6 3-6.6 6.6-6.6h72.2c5.3 0 9.7 4.3 9.7 9.7v5.8c0 3.6-2.9 6.5-6.6 6.5z" fill="#32323d"/><path d="m553.4 787.1h-154.8v-126.5c0-28.4 22-56.6 81.3-56.6s68.8 31.4 71.6 74.3z" fill="#32323d"/><path d="m454.6 744.8s-.5-75.2-6.9-96.5c-7.5-25-17.1-35.1-17.1-35.1-47.6 6.6-54.9 73.4-50.4 123.2 2.8 31.3 18.3 55 49.1 60.9 33.7 6.5 107.6 5.3 107.6 5.3l-1.6-24.3z" fill="#32323d"/><path d="m625 759.8h18.2v24.9h-18.2z" fill="#32323d" transform="matrix(.962 .2729 -.2729 .962 234.7905 -143.722)"/><path d="m637.5 760.2-6.8 24" fill="none" stroke="#fff" stroke-miterlimit="10"/><path d="m641.7 761.4-6.8 24" fill="none" stroke="#fff" stroke-miterlimit="10"/><path d="m533 778.8h18.2v24.9h-18.2z" fill="#444451" transform="matrix(.9924 .1234 -.1234 .9924 101.8167 -60.8718)"/><path d="m544 778.4-3.6 24.7" fill="none" stroke="#fff" stroke-miterlimit="10"/><path d="m548.2 779-3.5 24.7" fill="none" stroke="#fff" stroke-miterlimit="10"/><circle cx="521.3" cy="557.3" fill="#f8994d" r="9.6"/><path d="m500.5 587.6v23.2h-46.8l5.7-48.2s17.3 12.7 32.7 12.7c3 0 5.7 13 8.4 12.3z" fill="#faaf6a"/><path d="m500.5 587.6c17-5.8 25.2-16.9 25.2-32.5 0-18.5-15-33.6-33.6-33.6-18.5 0-33.6 15-33.6 33.6 0 3.1.4 6.1 1.2 8.9.1 0 19.3 30.9 40.8 23.6z" fill="#faaf6a"/><path d="m533.3 534.8s-14.5 9.4-29.5 6.4-24.8-17.3-24.8-17.3 14.5-9.4 29.5-6.4 24.8 17.3 24.8 17.3z" fill="#2a2a3a"/><path d="m490.4 516s-1.8 12.4-11.3 20.9-20.5 12.9-20.5 12.9-2.6-19.5 6.9-28c9.6-8.5 24.9-5.8 24.9-5.8z" fill="#2a2a3a"/><circle cx="489.9" cy="551.4" fill="#2a2a3a" r="1.5"/><circle cx="516.2" cy="551.4" fill="#2a2a3a" r="1.5"/><path d="m499.8 565.1s8.6 1.3 9.1-1.5-1.1-15.8-3.3-16.7c-2.2-1-5.8 18.2-5.8 18.2z" fill="#f8994d"/><path d="m501.1 569.8s-6.5.7-9.9-3.6" fill="none" stroke="#2a2a3a" stroke-linecap="round" stroke-linejoin="round" stroke-miterlimit="10"/><path d="m495.3 543.4h-6.2c-.5 0-.9-.4-.9-.9v-.6c0-.5.4-.9.9-.9h6.2c.5 0 .9.4.9.9v.6c0 .5-.4.9-.9.9z" fill="#2a2a3a"/><path d="m520.7 544.7h-5c-.5 0-.9-.4-.9-.9v-.6c0-.5.4-.9.9-.9h5c.5 0 .9.4.9.9v.6c0 .5-.4.9-.9.9z" fill="#2a2a3a"/><circle cx="459.8" cy="555.1" fill="#faaf6a" r="9.6"/><path d="m477.1 585.1c-4.6-2.3-8.6-5.6-11.6-9.7" fill="none" stroke="#f8994d" stroke-miterlimit="10"/><path d="m487.9 621.5-47.9-11.3c-3.7-.9-6-4.6-5.1-8.3l1.1-4.8c.9-3.7 4.6-6 8.3-5.1l34.4 8.1c7.4 1.7 12 9.1 10.2 16.5z" fill="#32323d"/><path d="m487.9 623.7-45.7-10.8c-3.4-.8-5.9-3.4-6.7-6.6" fill="none" stroke="#fff" stroke-linecap="round" stroke-linejoin="round" stroke-miterlimit="10"/><path d="m487.3 620.6 30.5-8c3.6-.9 5.7-4.6 4.8-8.2l-1.2-4.6c-.9-3.6-4.6-5.7-8.2-4.8l-17.6 4.6c-7.1 1.9-11.4 9.2-9.5 16.3z" fill="#32323d"/><g stroke-miterlimit="10"><path d="m452.7 687.9v53.1s30.4 0 42.6 3.8" fill="none" stroke="#fff"/><circle cx="478.6" cy="615.7" fill="none" r="1.4" stroke="#fff" stroke-linecap="round" stroke-linejoin="round"/><circle cx="495.1" cy="615.7" fill="none" r="1.4" stroke="#fff" stroke-linecap="round" stroke-linejoin="round"/><path d="m657 556.5h216.6v156.6h-216.6z" fill="#fff" stroke="#8888a3" stroke-linecap="round" stroke-linejoin="round" stroke-width="2"/><path d="m638.2 556.5h18.8v156.6h-18.8z" fill="#fff" stroke="#8888a3" stroke-linecap="round" stroke-linejoin="round" stroke-width="2"/><path d="m721.6 782.7h87.5v11.3h-87.5z" fill="#fff" stroke="#8888a3" stroke-linecap="round" stroke-linejoin="round" stroke-width="2"/><path d="m755.9 782.7v-122.4-28.5h18.8v28.5 122.4" fill="#fff" stroke="#8888a3" stroke-linecap="round" stroke-linejoin="round" stroke-width="2"/><circle cx="765.3" cy="639.6" fill="#fff" r="22.8" stroke="#8888a3" stroke-linecap="round" stroke-linejoin="round" stroke-width="2"/><g fill="none" mask="url(#a)" stroke="#9393a9"><path d="m1866.5 283.8h63.2v35.7h-63.2z" transform="matrix(.8456 -.5338 .5338 .8456 131.9879 1059.7426)"/><path d="m1901 306.4 14.2-36.7-53.4 33.7z"/><path d="m1730.9 611.9h97.8v55.3h-97.8z" transform="matrix(.9906 -.1365 .1365 .9906 -70.6331 248.8685)"/><path d="m1781 648.2 43.5-42.7-96.9 13.4z"/><path d="m1186.5 602.8h69.1v39.1h-69.1z" transform="matrix(.9906 -.1365 .1365 .9906 -73.5084 172.455)"/><path d="m1221.9 628.4 30.7-30.1-68.4 9.4z"/><path d="m1561.9 586.2h50.3v28.5h-50.3z" transform="matrix(.9906 .137 -.137 .9906 97.2288 -211.7843)"/><path d="m1586.5 604.8 27.5-15-49.9-6.9z"/><path d="m1886.5 470.4h66.9v37.8h-66.9z" transform="matrix(.6633 -.7483 .7483 .6633 280.2285 1601.5851)"/><path d="m1924.4 493.3 3.6-41.5-44.3 50.1z"/><path d="m1349.2 587.8h48.2v27.3h-48.2z" transform="matrix(.9906 -.1365 .1365 .9906 -69.2234 193.0288)"/><path d="m1373.9 605.6 21.4-21-47.8 6.6z"/><path d="m1057.2 676.8h27.5v15.6h-27.5z" transform="matrix(.9906 -.1365 .1365 .9906 -83.3996 152.5492)"/><path d="m1071.3 687 12.2-12-27.2 3.7z"/><path d="m1588.5 791.7h93.4v52.8h-93.4z" transform="matrix(.8507 -.5256 .5256 .8507 -185.8918 981.6552)"/><path d="m1639.5 825.1 21.5-54.1-79.5 49.2z"/><path d="m1821.1 822.1h185.9v105.1h-185.9z" transform="matrix(.9531 -.3028 .3028 .9531 -174.998 620.645)"/><path d="m1919 890.3 67.7-93.9-177.2 56.3z"/><path d="m1456.4 385.1h185.9v105.1h-185.9z" transform="matrix(.9531 -.3028 .3028 .9531 -59.7915 489.7057)"/><path d="m1554.3 453.3 67.7-93.9-177.1 56.3z"/><path d="m1791.2 491.5h36.7v20.8h-36.7z" transform="matrix(.8284 -.5602 .5602 .8284 29.4501 1099.8217)"/><path d="m1811.4 504.5 7.5-21.5-30.4 20.5z"/><path d="m1399.5 747.4h36.7v20.8h-36.7z" transform="matrix(.8284 -.5602 .5602 .8284 -181.1778 924.3319)"/><path d="m1419.7 760.5 7.5-21.6-30.4 20.6z"/><path d="m1693.3 463.4h18.9v10.7h-18.9z" transform="matrix(.9491 -.3148 .3148 .9491 -60.9933 559.9305)"/><path d="m1703.3 470.4 6.8-9.7-18 6z"/><path d="m1248.3 689.6h33.4v18.9h-33.4z" transform="matrix(.6633 -.7483 .7483 .6633 -97.2096 1182.0452)"/><path d="m1267.2 701 1.8-20.7-22.1 25z"/><path d="m1200.8 672.1h18.3v10.4h-18.3z" transform="matrix(.8284 -.5602 .5602 .8284 -171.7546 794.0356)"/><path d="m1210.8 678.6 3.8-10.7-15.2 10.2z"/><path d="m1151.9 686.1h9.4v5.3h-9.4z" transform="matrix(.9491 -.3148 .3148 .9491 -158.0317 399.1811)"/><path d="m1156.9 689.6 3.4-4.8-9 2.9z"/><path d="m1857.4 185.9h25.1v14.2h-25.1z" transform="matrix(.2643 -.9644 .9644 .2643 1189.5247 1945.4641)"/><path d="m1872.1 193.6-5.7-14.6-6.6 24.3z"/><path d="m1485.9 745.5h35.1v19.8h-35.1z" transform="matrix(.5308 -.8475 .8475 .5308 65.1227 1628.5369)"/><path d="m1506.1 757.1-1.8-21.8-18.6 29.7z"/><path d="m1739.2 779.9h29.8v16.9h-29.8z" transform="matrix(.9855 .1698 -.1698 .9855 159.3676 -286.4476)"/><path d="m1753.7 791 16.6-8.4-29.4-5.1z"/><path d="m1430.6 666.9h28.6v16.2h-28.6z" transform="matrix(.9946 -.1035 .1035 .9946 -62.0949 153.1531)"/><path d="m1445.1 677.5 13.1-12-28.4 2.9z"/><path d="m1588.7 754.4h21.8v12.3h-21.8z" transform="matrix(.8465 -.5324 .5324 .8465 -159.3952 968.3232)"/><path d="m1600.6 762.2 4.9-12.6-18.4 11.6z"/><path d="m1848.8 705.6h69.8v39.5h-69.8z" transform="matrix(.7211 -.6928 .6928 .7211 22.7454 1507.2625)"/><path d="m1887.9 729.8 7.2-42.8-50.3 48.3z"/></g><path d="m1728.9 894.5h18.1v10.2h-18.1z" fill="none" stroke="#9393a9" transform="matrix(.8284 -.5602 .5602 .8284 -205.6588 1128.0068)"/><path d="m1738.9 900.9 3.7-10.6-15 10.2z" fill="none" stroke="#9393a9"/></g></svg>