<?xml version="1.0" encoding="utf-8"?>
<!-- Generator: Adobe Illustrator 21.1.0, SVG Export Plug-In . SVG Version: 6.00 Build 0)  -->
<svg version="1.1" id="Layer_1" xmlns="http://www.w3.org/2000/svg" xmlns:xlink="http://www.w3.org/1999/xlink" x="0px" y="0px"
	 viewBox="0 0 1920 1080" style="enable-background:new 0 0 1920 1080;" xml:space="preserve">
<style type="text/css">
	.st0{fill:none;stroke:#8888A3;stroke-width:2;stroke-linecap:round;stroke-linejoin:round;stroke-miterlimit:10;}
	.st1{fill:#FFFFFF;stroke:#8888A3;stroke-width:2;stroke-linecap:round;stroke-linejoin:round;stroke-miterlimit:10;}
	.st2{fill:#FAAF6A;}
	.st3{fill:#32323D;}
	.st4{fill:#2A2A3A;}
	.st5{fill:none;stroke:#FFFFFF;stroke-miterlimit:10;}
	.st6{fill:#444451;}
	.st7{fill:#F8994D;}
	.st8{fill:none;stroke:#2A2A3A;stroke-linecap:round;stroke-linejoin:round;stroke-miterlimit:10;}
	.st9{fill:none;stroke:#F8994D;stroke-miterlimit:10;}
	.st10{fill:none;stroke:#FFFFFF;stroke-linecap:round;stroke-linejoin:round;stroke-miterlimit:10;}
	.st11{filter:url(#Adobe_OpacityMaskFilter);}
	.st12{fill:none;stroke:#9393A9;stroke-miterlimit:10;}
	.st13{fill:#FFFFFF;}
	.st14{mask:url(#SVGID_1_);}
</style>
<path class="st0" d="M525.7,795.3H373.6V551.2c0-10.2,8.3-18.5,18.5-18.5h115.2c10.2,0,18.5,8.3,18.5,18.5V795.3z"/>
<rect x="0" y="784.3" class="st1" width="1920" height="297.5"/>
<path class="st2" d="M640.9,767.8c0,0,18.9-5.6,24.6-3.3c5.8,2.3,39,24.2,39,24.2s-20.5,2.6-31.7,4.6c-11.1,2-34.6-7.7-34.6-7.7
	L640.9,767.8z"/>
<path class="st3" d="M873.6,645.1c0,0,251.6-13.3,323.4-31.8c98.1-25.3,220.9-171.1,282-172.2c55.7-1,208.2-67.8,266-150.2
	c105.2-150.1,175-418.6,175-418.6v1234c0,0-137.5-175.3-329.1-177.2c-273.7-2.7-180.5-212.5-337.9-189.3
	C1080.5,765.4,873.6,645.1,873.6,645.1z"/>
<path class="st0" d="M504.2,598h-109c-6.8,0-12.4-5.5-12.4-12.4v-32.2c0-6.8,5.5-12.4,12.4-12.4h109c6.8,0,12.4,5.5,12.4,12.4v32.2
	C516.5,592.5,511,598,504.2,598z"/>
<path class="st4" d="M500,759.6c0,0,68.8,35.3,116.5,27.8c3-0.5,5.6-2.7,6.4-5.6l6-21.1c0.9-3.3-0.3-6.7-3.1-8.6
	c-10.2-7-35.7-22.7-62-24.8L500,759.6z"/>
<path class="st2" d="M546.5,784.6c0,0,17.8-8.4,23.9-6.9c6,1.4,23.1,11.2,28,14.6l11,8.1c0,0-17.5,3-27.5,4.8s-35.4-2.5-35.4-2.5
	V784.6z"/>
<path class="st4" d="M511.1,771c0,0-68.1-150.9,0-160.3c0,0,79.7,2.8,54.4,143.3L511.1,771z"/>
<path class="st3" d="M516.9,612.4h-75.3c-3.6,0-6.6-3-6.6-6.6V597c0-3.6,3-6.6,6.6-6.6h72.2c5.3,0,9.7,4.3,9.7,9.7v5.8
	C523.5,609.5,520.6,612.4,516.9,612.4z"/>
<path class="st3" d="M553.4,787.1H398.6V660.6c0-28.4,22-56.6,81.3-56.6s68.8,31.4,71.6,74.3L553.4,787.1z"/>
<path class="st3" d="M454.6,744.8c0,0-0.5-75.2-6.9-96.5c-7.5-25-17.1-35.1-17.1-35.1c-47.6,6.6-54.9,73.4-50.4,123.2
	c2.8,31.3,18.3,55,49.1,60.9c33.7,6.5,107.6,5.3,107.6,5.3l-1.6-24.3L454.6,744.8z"/>
<g>
	
		<rect x="625" y="759.8" transform="matrix(0.962 0.2729 -0.2729 0.962 234.7905 -143.722)" class="st3" width="18.2" height="24.9"/>
	<line class="st5" x1="637.5" y1="760.2" x2="630.7" y2="784.2"/>
	<line class="st5" x1="641.7" y1="761.4" x2="634.9" y2="785.4"/>
</g>
<g>
	
		<rect x="533" y="778.8" transform="matrix(0.9924 0.1234 -0.1234 0.9924 101.8167 -60.8718)" class="st6" width="18.2" height="24.9"/>
	<g>
		<line class="st5" x1="544" y1="778.4" x2="540.4" y2="803.1"/>
		<line class="st5" x1="548.2" y1="779" x2="544.7" y2="803.7"/>
	</g>
</g>
<g>
	<circle class="st7" cx="521.3" cy="557.3" r="9.6"/>
	<path class="st2" d="M500.5,587.6v23.2h-46.8l5.7-48.2c0,0,17.3,12.7,32.7,12.7C495.1,575.3,497.8,588.3,500.5,587.6z"/>
	<path class="st2" d="M500.5,587.6"/>
	<path class="st2" d="M500.5,587.6c17-5.8,25.2-16.9,25.2-32.5c0-18.5-15-33.6-33.6-33.6c-18.5,0-33.6,15-33.6,33.6
		c0,3.1,0.4,6.1,1.2,8.9C459.8,564,479,594.9,500.5,587.6z"/>
	<path class="st4" d="M533.3,534.8c0,0-14.5,9.4-29.5,6.4S479,523.9,479,523.9s14.5-9.4,29.5-6.4
		C523.5,520.5,533.3,534.8,533.3,534.8z"/>
	<path class="st4" d="M490.4,516c0,0-1.8,12.4-11.3,20.9c-9.5,8.5-20.5,12.9-20.5,12.9s-2.6-19.5,6.9-28
		C475.1,513.3,490.4,516,490.4,516z"/>
	<circle class="st4" cx="489.9" cy="551.4" r="1.5"/>
	<circle class="st4" cx="516.2" cy="551.4" r="1.5"/>
	<path class="st7" d="M499.8,565.1c0,0,8.6,1.3,9.1-1.5s-1.1-15.8-3.3-16.7C503.4,545.9,499.8,565.1,499.8,565.1z"/>
	<path class="st8" d="M501.1,569.8c0,0-6.5,0.7-9.9-3.6"/>
	<path class="st4" d="M495.3,543.4h-6.2c-0.5,0-0.9-0.4-0.9-0.9v-0.6c0-0.5,0.4-0.9,0.9-0.9h6.2c0.5,0,0.9,0.4,0.9,0.9v0.6
		C496.2,543,495.8,543.4,495.3,543.4z"/>
	<path class="st4" d="M520.7,544.7h-5c-0.5,0-0.9-0.4-0.9-0.9v-0.6c0-0.5,0.4-0.9,0.9-0.9h5c0.5,0,0.9,0.4,0.9,0.9v0.6
		C521.6,544.3,521.2,544.7,520.7,544.7z"/>
	<circle class="st2" cx="459.8" cy="555.1" r="9.6"/>
	<path class="st9" d="M477.1,585.1c-4.6-2.3-8.6-5.6-11.6-9.7"/>
</g>
<path class="st3" d="M487.9,621.5L440,610.2c-3.7-0.9-6-4.6-5.1-8.3l1.1-4.8c0.9-3.7,4.6-6,8.3-5.1l34.4,8.1
	c7.4,1.7,12,9.1,10.2,16.5L487.9,621.5z"/>
<path class="st10" d="M487.9,623.7l-45.7-10.8c-3.4-0.8-5.9-3.4-6.7-6.6"/>
<path class="st3" d="M487.3,620.6l30.5-8c3.6-0.9,5.7-4.6,4.8-8.2l-1.2-4.6c-0.9-3.6-4.6-5.7-8.2-4.8l-17.6,4.6
	c-7.1,1.9-11.4,9.2-9.5,16.3L487.3,620.6z"/>
<path class="st5" d="M452.7,687.9V741c0,0,30.4,0,42.6,3.8"/>
<circle class="st10" cx="478.6" cy="615.7" r="1.4"/>
<circle class="st10" cx="495.1" cy="615.7" r="1.4"/>
<g>
	<rect x="657" y="556.5" class="st1" width="216.6" height="156.6"/>
	<rect x="638.2" y="556.5" class="st1" width="18.8" height="156.6"/>
	<g>
		<rect x="721.6" y="782.7" class="st1" width="87.5" height="11.3"/>
		<polyline class="st1" points="755.9,782.7 755.9,660.3 755.9,631.8 774.7,631.8 774.7,660.3 774.7,782.7 		"/>
		<circle class="st1" cx="765.3" cy="639.6" r="22.8"/>
	</g>
</g>
<defs>
	<filter id="Adobe_OpacityMaskFilter" filterUnits="userSpaceOnUse" x="1054.7" y="177.4" width="964.5" height="776.1">
		<feColorMatrix  type="matrix" values="1 0 0 0 0  0 1 0 0 0  0 0 1 0 0  0 0 0 1 0"/>
	</filter>
</defs>
<mask maskUnits="userSpaceOnUse" x="1054.7" y="177.4" width="964.5" height="776.1" id="SVGID_1_">
	<g class="st11">
		<circle class="st12" cx="1320.1" cy="624.9" r="3.3"/>
		<path class="st13" d="M873.6,645.1c0,0,251.6-13.3,323.4-31.8c98.1-25.3,220.9-171.1,282-172.2c55.7-1,208.2-67.8,266-150.2
			c105.2-150.1,175-418.6,175-418.6v1234c0,0-137.5-175.3-329.1-177.2c-273.7-2.7-180.5-212.5-337.9-189.3
			C1080.5,765.4,873.6,645.1,873.6,645.1z"/>
	</g>
</mask>
<g class="st14">
	<g>
		
			<rect x="1866.5" y="283.8" transform="matrix(0.8456 -0.5338 0.5338 0.8456 131.9879 1059.7426)" class="st12" width="63.2" height="35.7"/>
		<polygon class="st12" points="1901,306.4 1915.2,269.7 1861.8,303.4 		"/>
	</g>
	<g>
		
			<rect x="1730.9" y="611.9" transform="matrix(0.9906 -0.1365 0.1365 0.9906 -70.6331 248.8685)" class="st12" width="97.8" height="55.3"/>
		<polygon class="st12" points="1781,648.2 1824.5,605.5 1727.6,618.9 		"/>
	</g>
	<g>
		
			<rect x="1186.5" y="602.8" transform="matrix(0.9906 -0.1365 0.1365 0.9906 -73.5084 172.455)" class="st12" width="69.1" height="39.1"/>
		<polygon class="st12" points="1221.9,628.4 1252.6,598.3 1184.2,607.7 		"/>
	</g>
	<g>
		
			<rect x="1561.9" y="586.2" transform="matrix(0.9906 0.137 -0.137 0.9906 97.2288 -211.7843)" class="st12" width="50.3" height="28.5"/>
		<polygon class="st12" points="1586.5,604.8 1614,589.8 1564.1,582.9 		"/>
	</g>
	<g>
		
			<rect x="1886.5" y="470.4" transform="matrix(0.6633 -0.7483 0.7483 0.6633 280.2285 1601.5851)" class="st12" width="66.9" height="37.8"/>
		<polygon class="st12" points="1924.4,493.3 1928,451.8 1883.7,501.9 		"/>
	</g>
	<g>
		
			<rect x="1349.2" y="587.8" transform="matrix(0.9906 -0.1365 0.1365 0.9906 -69.2234 193.0288)" class="st12" width="48.2" height="27.3"/>
		<polygon class="st12" points="1373.9,605.6 1395.3,584.6 1347.5,591.2 		"/>
	</g>
	<g>
		
			<rect x="1057.2" y="676.8" transform="matrix(0.9906 -0.1365 0.1365 0.9906 -83.3996 152.5492)" class="st12" width="27.5" height="15.6"/>
		<polygon class="st12" points="1071.3,687 1083.5,675 1056.3,678.7 		"/>
	</g>
	<g>
		
			<rect x="1588.5" y="791.7" transform="matrix(0.8507 -0.5256 0.5256 0.8507 -185.8918 981.6552)" class="st12" width="93.4" height="52.8"/>
		<polygon class="st12" points="1639.5,825.1 1661,771 1581.5,820.2 		"/>
	</g>
	<g>
		
			<rect x="1821.1" y="822.1" transform="matrix(0.9531 -0.3028 0.3028 0.9531 -174.998 620.645)" class="st12" width="185.9" height="105.1"/>
		<polygon class="st12" points="1919,890.3 1986.7,796.4 1809.5,852.7 		"/>
	</g>
	<g>
		
			<rect x="1456.4" y="385.1" transform="matrix(0.9531 -0.3028 0.3028 0.9531 -59.7915 489.7057)" class="st12" width="185.9" height="105.1"/>
		<polygon class="st12" points="1554.3,453.3 1622,359.4 1444.9,415.7 		"/>
	</g>
	<g>
		
			<rect x="1791.2" y="491.5" transform="matrix(0.8284 -0.5602 0.5602 0.8284 29.4501 1099.8217)" class="st12" width="36.7" height="20.8"/>
		<polygon class="st12" points="1811.4,504.5 1818.9,483 1788.5,503.5 		"/>
	</g>
	<g>
		
			<rect x="1399.5" y="747.4" transform="matrix(0.8284 -0.5602 0.5602 0.8284 -181.1778 924.3319)" class="st12" width="36.7" height="20.8"/>
		<polygon class="st12" points="1419.7,760.5 1427.2,738.9 1396.8,759.5 		"/>
	</g>
	<g>
		
			<rect x="1693.3" y="463.4" transform="matrix(0.9491 -0.3148 0.3148 0.9491 -60.9933 559.9305)" class="st12" width="18.9" height="10.7"/>
		<polygon class="st12" points="1703.3,470.4 1710.1,460.7 1692.1,466.7 		"/>
	</g>
	<g>
		
			<rect x="1248.3" y="689.6" transform="matrix(0.6633 -0.7483 0.7483 0.6633 -97.2096 1182.0452)" class="st12" width="33.4" height="18.9"/>
		<polygon class="st12" points="1267.2,701 1269,680.3 1246.9,705.3 		"/>
	</g>
	<g>
		
			<rect x="1200.8" y="672.1" transform="matrix(0.8284 -0.5602 0.5602 0.8284 -171.7546 794.0356)" class="st12" width="18.3" height="10.4"/>
		<polygon class="st12" points="1210.8,678.6 1214.6,667.9 1199.4,678.1 		"/>
	</g>
	<g>
		
			<rect x="1151.9" y="686.1" transform="matrix(0.9491 -0.3148 0.3148 0.9491 -158.0317 399.1811)" class="st12" width="9.4" height="5.3"/>
		<polygon class="st12" points="1156.9,689.6 1160.3,684.8 1151.3,687.7 		"/>
	</g>
	<g>
		
			<rect x="1857.4" y="185.9" transform="matrix(0.2643 -0.9644 0.9644 0.2643 1189.5247 1945.4641)" class="st12" width="25.1" height="14.2"/>
		<polygon class="st12" points="1872.1,193.6 1866.4,179 1859.8,203.3 		"/>
	</g>
	<g>
		
			<rect x="1485.9" y="745.5" transform="matrix(0.5308 -0.8475 0.8475 0.5308 65.1227 1628.5369)" class="st12" width="35.1" height="19.8"/>
		<polygon class="st12" points="1506.1,757.1 1504.3,735.3 1485.7,765 		"/>
	</g>
	<g>
		
			<rect x="1739.2" y="779.9" transform="matrix(0.9855 0.1698 -0.1698 0.9855 159.3676 -286.4476)" class="st12" width="29.8" height="16.9"/>
		<polygon class="st12" points="1753.7,791 1770.3,782.6 1740.9,777.5 		"/>
	</g>
	<g>
		
			<rect x="1430.6" y="666.9" transform="matrix(0.9946 -0.1035 0.1035 0.9946 -62.0949 153.1531)" class="st12" width="28.6" height="16.2"/>
		<polygon class="st12" points="1445.1,677.5 1458.2,665.5 1429.8,668.4 		"/>
	</g>
	<g>
		
			<rect x="1588.7" y="754.4" transform="matrix(0.8465 -0.5324 0.5324 0.8465 -159.3952 968.3232)" class="st12" width="21.8" height="12.3"/>
		<polygon class="st12" points="1600.6,762.2 1605.5,749.6 1587.1,761.2 		"/>
	</g>
	<g>
		
			<rect x="1848.8" y="705.6" transform="matrix(0.7211 -0.6928 0.6928 0.7211 22.7454 1507.2625)" class="st12" width="69.8" height="39.5"/>
		<polygon class="st12" points="1887.9,729.8 1895.1,687 1844.8,735.3 		"/>
	</g>
</g>
<g>
	
		<rect x="1728.9" y="894.5" transform="matrix(0.8284 -0.5602 0.5602 0.8284 -205.6588 1128.0068)" class="st12" width="18.1" height="10.2"/>
	<polygon class="st12" points="1738.9,900.9 1742.6,890.3 1727.6,900.5 	"/>
</g>
</svg>
